<mxfile host="app.diagrams.net" agent="Mozilla/5.0 (Macintosh; Intel Mac OS X 10_15_7) AppleWebKit/537.36 (KHTML, like Gecko) Chrome/128.0.0.0 Safari/537.36" version="24.7.10">
  <diagram name="Page-1" id="fM0MqXMmlBkYp2iZ7SRJ">
    <mxGraphModel dx="1035" dy="624" grid="1" gridSize="10" guides="1" tooltips="1" connect="1" arrows="1" fold="1" page="1" pageScale="1" pageWidth="827" pageHeight="1169" math="0" shadow="0">
      <root>
        <mxCell id="0" />
        <mxCell id="1" parent="0" />
        <mxCell id="vMeArnP3FpJWF0G-VazJ-12" style="edgeStyle=orthogonalEdgeStyle;rounded=0;orthogonalLoop=1;jettySize=auto;html=1;exitX=0;exitY=0.5;exitDx=0;exitDy=0;entryX=0;entryY=1;entryDx=0;entryDy=0;" edge="1" parent="1" source="vMeArnP3FpJWF0G-VazJ-1" target="vMeArnP3FpJWF0G-VazJ-2">
          <mxGeometry relative="1" as="geometry" />
        </mxCell>
        <mxCell id="vMeArnP3FpJWF0G-VazJ-1" value="&lt;p style=&quot;margin:0px;margin-top:4px;text-align:center;&quot;&gt;&lt;b&gt;Cell&lt;/b&gt;&lt;/p&gt;&lt;hr size=&quot;1&quot; style=&quot;border-style:solid;&quot;&gt;&lt;div style=&quot;height:2px;&quot;&gt;Jump jumpObj&lt;/div&gt;" style="verticalAlign=top;align=left;overflow=fill;html=1;whiteSpace=wrap;" vertex="1" parent="1">
          <mxGeometry x="80" y="200" width="100" height="60" as="geometry" />
        </mxCell>
        <mxCell id="vMeArnP3FpJWF0G-VazJ-2" value="&lt;p style=&quot;margin:0px;margin-top:4px;text-align:center;&quot;&gt;&lt;b&gt;Jump&lt;/b&gt;&lt;/p&gt;&lt;hr size=&quot;1&quot; style=&quot;border-style:solid;&quot;&gt;&lt;div style=&quot;height:2px;&quot;&gt;int start&lt;/div&gt;&lt;div style=&quot;height:2px;&quot;&gt;&lt;br&gt;&lt;/div&gt;&lt;div style=&quot;height:2px;&quot;&gt;&lt;br&gt;&lt;br&gt;&lt;br&gt;&lt;/div&gt;&lt;div style=&quot;height:2px;&quot;&gt;&lt;br&gt;&lt;/div&gt;&lt;div style=&quot;height:2px;&quot;&gt;&lt;br&gt;&lt;/div&gt;&lt;div style=&quot;height:2px;&quot;&gt;int end&lt;/div&gt;" style="verticalAlign=top;align=left;overflow=fill;html=1;whiteSpace=wrap;" vertex="1" parent="1">
          <mxGeometry x="220" y="515" width="90" height="70" as="geometry" />
        </mxCell>
        <mxCell id="vMeArnP3FpJWF0G-VazJ-3" value="&lt;p style=&quot;margin:0px;margin-top:4px;text-align:center;&quot;&gt;&lt;b&gt;Board&lt;/b&gt;&lt;/p&gt;&lt;hr size=&quot;1&quot; style=&quot;border-style:solid;&quot;&gt;&lt;div style=&quot;height:2px;&quot;&gt;&lt;br&gt;&lt;/div&gt;&lt;div style=&quot;height:2px;&quot;&gt;&lt;br&gt;&lt;/div&gt;&lt;div style=&quot;height:2px;&quot;&gt;Cells [][]cells&lt;/div&gt;" style="verticalAlign=top;align=left;overflow=fill;html=1;whiteSpace=wrap;" vertex="1" parent="1">
          <mxGeometry x="150" y="330" width="90" height="70" as="geometry" />
        </mxCell>
        <mxCell id="vMeArnP3FpJWF0G-VazJ-10" style="edgeStyle=orthogonalEdgeStyle;rounded=0;orthogonalLoop=1;jettySize=auto;html=1;exitX=0;exitY=0.5;exitDx=0;exitDy=0;entryX=1;entryY=0.5;entryDx=0;entryDy=0;" edge="1" parent="1" source="vMeArnP3FpJWF0G-VazJ-5" target="vMeArnP3FpJWF0G-VazJ-3">
          <mxGeometry relative="1" as="geometry" />
        </mxCell>
        <mxCell id="vMeArnP3FpJWF0G-VazJ-13" style="edgeStyle=orthogonalEdgeStyle;rounded=0;orthogonalLoop=1;jettySize=auto;html=1;exitX=0.5;exitY=1;exitDx=0;exitDy=0;" edge="1" parent="1" source="vMeArnP3FpJWF0G-VazJ-5" target="vMeArnP3FpJWF0G-VazJ-7">
          <mxGeometry relative="1" as="geometry" />
        </mxCell>
        <mxCell id="vMeArnP3FpJWF0G-VazJ-14" style="edgeStyle=orthogonalEdgeStyle;rounded=0;orthogonalLoop=1;jettySize=auto;html=1;exitX=1;exitY=0.5;exitDx=0;exitDy=0;" edge="1" parent="1" source="vMeArnP3FpJWF0G-VazJ-5" target="vMeArnP3FpJWF0G-VazJ-8">
          <mxGeometry relative="1" as="geometry" />
        </mxCell>
        <mxCell id="vMeArnP3FpJWF0G-VazJ-5" value="&lt;p style=&quot;margin:0px;margin-top:4px;text-align:center;&quot;&gt;&lt;b&gt;Game&lt;/b&gt;&lt;/p&gt;&lt;hr size=&quot;1&quot; style=&quot;border-style:solid;&quot;&gt;&lt;p style=&quot;margin:0px;margin-left:4px;&quot;&gt;Board board;&lt;/p&gt;&lt;p style=&quot;margin:0px;margin-left:4px;&quot;&gt;Dice dice;&lt;/p&gt;&lt;p style=&quot;margin:0px;margin-left:4px;&quot;&gt;Deque&amp;lt;Player&amp;gt; players;&lt;/p&gt;" style="verticalAlign=top;align=left;overflow=fill;html=1;whiteSpace=wrap;" vertex="1" parent="1">
          <mxGeometry x="350" y="70" width="220" height="150" as="geometry" />
        </mxCell>
        <mxCell id="vMeArnP3FpJWF0G-VazJ-7" value="&lt;p style=&quot;margin:0px;margin-top:4px;text-align:center;&quot;&gt;&lt;b&gt;Dice&lt;/b&gt;&lt;/p&gt;&lt;hr size=&quot;1&quot; style=&quot;border-style:solid;&quot;&gt;&lt;p style=&quot;margin:0px;margin-left:4px;&quot;&gt;int diceCount;&lt;/p&gt;&lt;p style=&quot;margin:0px;margin-left:4px;&quot;&gt;rolleDice();&lt;/p&gt;" style="verticalAlign=top;align=left;overflow=fill;html=1;whiteSpace=wrap;" vertex="1" parent="1">
          <mxGeometry x="380" y="480" width="160" height="100" as="geometry" />
        </mxCell>
        <mxCell id="vMeArnP3FpJWF0G-VazJ-8" value="&lt;p style=&quot;margin:0px;margin-top:4px;text-align:center;&quot;&gt;&lt;b&gt;Player&lt;/b&gt;&lt;/p&gt;&lt;hr size=&quot;1&quot; style=&quot;border-style:solid;&quot;&gt;&lt;p style=&quot;margin:0px;margin-left:4px;&quot;&gt;String id;&lt;/p&gt;&lt;p style=&quot;margin:0px;margin-left:4px;&quot;&gt;rolleDice();&lt;/p&gt;" style="verticalAlign=top;align=left;overflow=fill;html=1;whiteSpace=wrap;" vertex="1" parent="1">
          <mxGeometry x="630" y="340" width="110" height="90" as="geometry" />
        </mxCell>
        <mxCell id="vMeArnP3FpJWF0G-VazJ-11" style="edgeStyle=orthogonalEdgeStyle;rounded=0;orthogonalLoop=1;jettySize=auto;html=1;exitX=0.5;exitY=0;exitDx=0;exitDy=0;entryX=0.44;entryY=1.05;entryDx=0;entryDy=0;entryPerimeter=0;" edge="1" parent="1" source="vMeArnP3FpJWF0G-VazJ-3" target="vMeArnP3FpJWF0G-VazJ-1">
          <mxGeometry relative="1" as="geometry" />
        </mxCell>
      </root>
    </mxGraphModel>
  </diagram>
</mxfile>
